<?xml version="1.0" standalone="no"?>
<!DOCTYPE svg PUBLIC "-//W3C//DTD SVG 20010904//EN"
 "http://www.w3.org/TR/2001/REC-SVG-20010904/DTD/svg10.dtd">
<svg version="1.0" xmlns="http://www.w3.org/2000/svg"
 width="495.000000pt" height="504.000000pt" viewBox="0 0 495.000000 504.000000"
 preserveAspectRatio="xMidYMid meet">

<g transform="translate(0.000000,504.000000) scale(0.100000,-0.100000)"
fill="#000000" stroke="none">
<path d="M2274 4940 c-509 -43 -995 -240 -1374 -558 -482 -404 -782 -938 -871
-1550 -72 -501 7 -984 235 -1439 126 -253 258 -435 461 -639 114 -114 165
-158 320 -273 418 -313 1045 -497 1562 -460 694 49 1288 346 1737 869 306 356
503 789 573 1259 21 143 23 461 5 611 -84 670 -376 1203 -897 1639 -160 134
-363 256 -596 359 -81 36 -311 109 -409 131 -223 48 -533 69 -746 51z m396
-1120 c18 -18 20 -33 20 -140 l0 -119 38 -6 c177 -27 340 -72 398 -110 28 -18
31 -57 10 -131 -8 -27 -29 -103 -46 -169 -17 -66 -38 -131 -46 -143 -20 -30
-50 -27 -149 15 -124 52 -190 66 -315 67 -63 0 -133 -5 -156 -12 -84 -25 -119
-97 -74 -155 24 -30 156 -99 310 -162 234 -95 317 -142 401 -224 114 -113 167
-230 176 -391 17 -306 -164 -557 -472 -655 l-84 -26 -3 -151 c-4 -198 8 -188
-218 -188 -222 0 -213 -7 -212 163 0 85 -3 129 -11 135 -7 5 -46 14 -87 21
-176 29 -424 116 -441 155 -8 17 -1 60 31 187 60 237 67 258 96 265 15 4 52
-6 108 -30 124 -53 191 -75 285 -91 100 -18 163 -19 248 -4 76 13 122 42 146
92 24 47 11 93 -39 137 -47 41 -100 67 -300 145 -93 37 -204 85 -246 107 -368
190 -425 703 -108 963 75 62 161 110 243 136 40 12 75 27 79 33 4 6 8 67 8
136 0 180 -12 170 211 170 166 0 180 -1 199 -20z"/>
</g>
</svg>
